<?xml version="1.0" encoding="iso-8859-1"?>
<!-- Uploaded to: SVG Repo, www.svgrepo.com, Generator: SVG Repo Mixer Tools -->
<svg height="800px" width="800px" version="1.1" id="Layer_1" xmlns="http://www.w3.org/2000/svg" xmlns:xlink="http://www.w3.org/1999/xlink" 
	 viewBox="0 0 512 512" xml:space="preserve">
<path style="fill:#6A82A1;" d="M416.241,240.158H274.732v-48.081c0-10.345-8.387-18.732-18.732-18.732
	c-10.345,0-18.732,8.387-18.732,18.732v48.081H95.759c-10.345,0-18.732,8.387-18.732,18.732v61.034
	c0,10.345,8.387,18.732,18.732,18.732s18.732-8.387,18.732-18.732v-42.302h283.02v42.302c0,10.345,8.387,18.732,18.732,18.732
	c10.345,0,18.732-8.387,18.732-18.732V258.89C434.973,248.545,426.587,240.158,416.241,240.158z"/>
<path style="fill:#36495E;" d="M416.241,240.158H274.732v-48.081c0-10.345-8.387-18.732-18.732-18.732v104.276h141.509v42.302
	c0,10.345,8.387,18.732,18.732,18.732c10.345,0,18.732-8.387,18.732-18.732V258.89C434.973,248.545,426.587,240.158,416.241,240.158
	z"/>
<path style="fill:#65C6BB;" d="M172.785,492.709H18.732C8.387,492.709,0,484.322,0,473.977V319.924
	c0-10.345,8.387-18.732,18.732-18.732h154.053c10.345,0,18.732,8.387,18.732,18.732v154.053
	C191.517,484.322,183.131,492.709,172.785,492.709z"/>
<path style="fill:#FFDA79;" d="M256,210.809c-52.801,0-95.759-42.957-95.759-95.759c0-52.801,42.957-95.759,95.759-95.759
	s95.759,42.957,95.759,95.759S308.801,210.809,256,210.809z"/>
<path style="fill:#FFD155;" d="M256,19.291v191.518c52.801,0,95.759-42.957,95.759-95.759C351.759,62.249,308.801,19.291,256,19.291
	z"/>
<path style="fill:#20B8AE;" d="M493.268,492.709H339.215c-10.345,0-18.732-8.387-18.732-18.732V319.924
	c0-10.345,8.387-18.732,18.732-18.732h154.053c10.345,0,18.732,8.387,18.732,18.732v154.053
	C512,484.322,503.613,492.709,493.268,492.709z"/>
</svg>