<svg width="25" height="25" viewBox="0 0 25 25" fill="none" xmlns="http://www.w3.org/2000/svg">
<path d="M12.9383 0.149414C6.34216 0.149414 0.945312 5.54626 0.945312 12.1424C0.945312 18.7385 6.34216 24.1354 12.9383 24.1354C19.5344 24.1354 24.9313 18.7385 24.9313 12.1424C24.9313 5.54626 19.5344 0.149414 12.9383 0.149414ZM12.9383 21.7368C7.64939 21.7368 3.34391 17.4313 3.34391 12.1424C3.34391 6.85349 7.64939 2.54801 12.9383 2.54801C18.2272 2.54801 22.5327 6.85349 22.5327 12.1424C22.5327 17.4313 18.2272 21.7368 12.9383 21.7368ZM18.4431 6.8415L10.5397 14.7449L7.43352 11.6507L5.74251 13.3417L10.5397 18.1389L20.1341 8.5445L18.4431 6.8415Z" fill="#364954"/>
</svg>
