<svg width="65" height="53" viewBox="0 0 65 53" fill="none" xmlns="http://www.w3.org/2000/svg">
<path d="M18.0889 24.8248V33.9624V34.2124H17.8389H15.8054H15.5554V33.9624V22.9947C13.487 22.0024 11.1134 21.8538 8.93813 22.58V33.9623V34.2123H8.68813H6.65464H6.40464V33.9623V23.9164C6.09246 24.1544 5.79694 24.4138 5.52033 24.6926L5.51987 24.6931C3.29843 26.9203 2.43334 30.1635 3.2512 33.2011L3.0098 33.2661L3.25121 33.2011C4.06904 36.2386 6.44548 38.6092 9.48475 39.42C12.4969 40.223 15.7068 39.3734 17.9267 37.1912L17.9871 37.1308L36.0248 19.0931L36.0252 19.0927C39.0351 16.0971 43.1087 14.415 47.3554 14.415C51.6019 14.415 55.6756 16.0971 58.6855 19.0927L58.6859 19.0931L59.1431 19.5503C59.1432 19.5504 59.1433 19.5506 59.1434 19.5507C62.1259 22.5213 63.8146 26.5495 63.8427 30.7585C63.848 30.814 63.8479 30.8698 63.8426 30.9253V52.2638V52.5138H63.5926H0.554199H0.304199V52.2638V30.9121V30.9093H0.304214C0.306265 30.723 0.352316 30.5395 0.439012 30.3744C0.569855 27.4475 1.83161 24.6848 3.95905 22.6684L3.95909 22.6684C6.1016 20.6386 8.95199 19.526 11.9032 19.5687C14.8543 19.6115 17.6717 20.8056 19.7544 22.8967L18.0889 24.8248ZM18.0889 24.8248L21.7293 28.4556L21.9061 28.6319L22.0826 28.4554L23.5161 27.022L23.6926 26.8454L23.5163 26.6686L19.7545 22.8968L18.0889 24.8248ZM51.1418 17.4927V49.9791H43.5079L43.5079 17.6931L43.5078 17.6885C43.5067 17.627 43.5011 17.5658 43.4911 17.5054C45.9866 16.7647 48.6435 16.7598 51.1418 17.4927ZM37.7912 20.9214L37.7935 20.9191C38.7276 19.9689 39.8003 19.1669 40.9746 18.5403V49.9798H33.3406V25.3324L37.7912 20.9214ZM13.0057 42.1686C15.3606 41.9066 17.5712 40.9125 19.3279 39.3313V39.3571L19.7553 38.9264L20.6396 38.0353V49.9791H13.0057V42.1686ZM2.8383 37.9207C3.11324 38.2723 3.40829 38.6079 3.72215 38.9259L3.72341 38.9272C5.54188 40.7433 7.9224 41.8854 10.4723 42.1691V49.9795H2.8383V37.9207ZM61.3096 49.9786L53.6757 49.9792V18.5397C54.8499 19.1664 55.9228 19.9684 56.8568 20.9185L56.8583 20.9201L57.3462 21.408L57.347 21.4087C59.8782 23.919 61.3042 27.3345 61.3096 30.8987C61.3046 30.9542 61.3046 31.0099 61.3096 31.0654V49.9786ZM30.8071 49.9795H23.1731V35.499L30.8071 27.8651V49.9795Z" fill="#EE467A" stroke="#EE467A" stroke-width="0.5"/>
<path d="M46.0583 2.44302V5.24326H44.5248V4.47651C44.5248 3.29734 43.8957 2.20808 42.8747 1.61835L42.8747 1.61831C41.8536 1.02898 40.5955 1.02898 39.5745 1.61831L39.5744 1.61835C38.5534 2.20813 37.9243 3.29732 37.9243 4.47651V8.5435C37.9243 9.41862 38.272 10.2585 38.8908 10.8772C39.5096 11.4959 40.3495 11.8437 41.2245 11.8437H41.2246H51.3921C52.2672 11.8437 53.107 11.496 53.7258 10.8772C54.3445 10.2584 54.6923 9.41855 54.6923 8.5435C54.6923 6.58944 53.9161 4.7157 52.5343 3.33426C51.153 1.95244 49.2792 1.17627 47.325 1.17627C46.6255 1.17627 46.0583 1.74347 46.0583 2.44302Z" fill="#EE467A" stroke="#EE467A" stroke-width="0.5"/>
<path d="M41.7326 14.8945C42.7132 14.8945 43.5078 14.0999 43.5078 13.1194C43.5078 12.1388 42.7132 11.3442 41.7326 11.3442C40.7521 11.3442 39.9575 12.1388 39.9575 13.1194C39.9575 14.0999 40.7521 14.8945 41.7326 14.8945Z" fill="#EE467A" stroke="#EE467A" stroke-width="0.5"/>
<path d="M50.8835 14.8945C51.864 14.8945 52.6586 14.0999 52.6586 13.1194C52.6586 12.1388 51.864 11.3442 50.8835 11.3442C49.903 11.3442 49.1084 12.1388 49.1084 13.1194C49.1084 14.0999 49.903 14.8945 50.8835 14.8945Z" fill="#EE467A" stroke="#EE467A" stroke-width="0.5"/>
<path d="M35.3114 15.268L35.3114 15.2681L28.1235 22.4559C27.5051 23.0753 26.6658 23.4234 25.7912 23.4244L25.7907 23.4244C24.9156 23.4234 24.0767 23.0752 23.4584 22.4559L20.5814 19.5789L20.5813 19.5788C19.9629 18.9599 19.6162 18.121 19.6162 17.2465C19.6162 16.3723 19.9629 15.5335 20.5813 14.9146L20.586 14.9099L20.586 14.91C21.2144 14.3135 22.0472 13.9812 22.9138 13.9812C23.746 13.9812 24.5476 14.288 25.1665 14.8413H25.1729L25.2461 14.9145L25.7904 15.4588L26.8716 14.3698L24.8921 12.3903L24.8916 12.3898C24.4006 11.8959 24.4008 11.098 24.8915 10.6039L24.8921 10.6033C26.2739 9.2215 28.1481 8.44531 30.1017 8.44531C32.0558 8.44531 33.93 9.22147 35.3114 10.6033L35.3114 10.6033C35.9297 11.2222 36.277 12.061 36.277 12.9357C36.277 13.8103 35.9297 14.6492 35.3114 15.268ZM35.3114 15.268L35.3118 15.2676L35.135 15.0908C35.7062 14.519 36.027 13.7439 36.027 12.9357C36.027 12.1273 35.706 11.352 35.1346 10.7801C33.8001 9.44515 31.9895 8.69531 30.1017 8.69531C28.2144 8.69531 26.4038 9.44516 25.0689 10.7801C24.6749 11.1768 24.6749 11.8172 25.0689 12.2135L35.3114 15.268Z" fill="#EE467A" stroke="#EE467A" stroke-width="0.5"/>
<path d="M28.1237 24.2549L28.1237 24.255L28.1254 24.2567C28.4583 24.588 28.9085 24.7754 29.3785 24.777L29.3791 24.777C29.9724 24.7775 30.5266 24.4817 30.8563 23.9888L30.8563 23.9888C31.186 23.4958 31.2477 22.8708 31.0206 22.3225C30.7939 21.7746 30.3083 21.3763 29.7268 21.2607L29.7268 21.2607C29.145 21.1449 28.5438 21.3278 28.1249 21.7472L28.1249 21.7472L28.1237 21.7484C27.4386 22.4436 27.4386 23.5598 28.1237 24.2549Z" fill="#EE467A" stroke="#EE467A" stroke-width="0.5"/>
<path d="M37.1114 17.7774L37.1115 17.7775L37.1158 17.7729C37.7679 17.0737 37.7482 15.9834 37.0725 15.3076L37.0725 15.3076C36.3963 14.6314 35.3063 14.6123 34.607 15.2643L34.6069 15.2642L34.6016 15.2694C34.2665 15.6008 34.0771 16.0529 34.0771 16.5247C34.0771 16.9957 34.2657 17.447 34.5998 17.7783C34.9297 18.1173 35.3834 18.3055 35.8561 18.2999C36.3279 18.3029 36.7809 18.1143 37.1114 17.7774Z" fill="#EE467A" stroke="#EE467A" stroke-width="0.5"/>
</svg>
