<svg width="55" height="61" viewBox="0 0 55 61" fill="none" xmlns="http://www.w3.org/2000/svg">
<path d="M13.7287 21.351L19.1832 15.8965L13.7287 10.4419L8.27411 15.8965L13.7287 21.351ZM5.54683 36.351C4.04683 36.351 2.76229 35.8165 1.6932 34.7474C0.624108 33.6783 0.0904716 32.3947 0.0922898 30.8965V6.35103C0.0922898 4.85103 0.626835 3.56649 1.69593 2.4974C2.76502 1.42831 4.04865 0.894671 5.54683 0.896489H49.1832C50.6832 0.896489 51.9677 1.43103 53.0368 2.50013C54.1059 3.56922 54.6396 4.85285 54.6377 6.35103V30.8965C54.6377 32.3965 54.1032 33.681 53.0341 34.7501C51.965 35.8192 50.6814 36.3529 49.1832 36.351H40.3877C40.6605 35.4419 40.8423 34.5329 40.9332 33.6238C41.0241 32.7147 41.0241 31.8056 40.9332 30.8965H49.1832V6.35103H5.54683V30.8965H13.7968C13.7059 31.8056 13.7059 32.7147 13.7968 33.6238C13.8877 34.5329 14.0696 35.4419 14.3423 36.351H5.54683ZM39.6377 17.2601C40.7741 17.2601 41.7405 16.8619 42.5368 16.0656C43.3332 15.2692 43.7305 14.3038 43.7286 13.1692C43.7286 12.0329 43.3305 11.0665 42.5341 10.2701C41.7377 9.47376 40.7723 9.07649 39.6377 9.07831C38.5014 9.07831 37.535 9.47649 36.7387 10.2729C35.9423 11.0692 35.545 12.0347 35.5468 13.1692C35.5468 14.3056 35.945 15.2719 36.7414 16.0683C37.5377 16.8647 38.5032 17.2619 39.6377 17.2601ZM8.27411 60.8965V55.1692C8.27411 53.5783 8.71774 52.101 9.60502 50.7374C10.4923 49.3738 11.6623 48.351 13.115 47.6692C15.3423 46.6238 17.6605 45.8392 20.0696 45.3156C22.4787 44.7919 24.9105 44.531 27.365 44.5328C29.8196 44.5328 32.2514 44.7947 34.6605 45.3183C37.0696 45.8419 39.3877 46.6256 41.615 47.6692C43.0696 48.351 44.2405 49.3738 45.1277 50.7374C46.015 52.101 46.4577 53.5783 46.4559 55.1692V60.8965H8.27411ZM13.7287 55.4419H41.0014V55.1692C41.0014 54.6238 40.8423 54.1238 40.5241 53.6692C40.2059 53.2147 39.7968 52.8738 39.2968 52.6465C37.3877 51.7828 35.4332 51.1238 33.4332 50.6692C31.4332 50.2147 29.4105 49.9874 27.365 49.9874C25.3196 49.9874 23.2968 50.2147 21.2968 50.6692C19.2968 51.1238 17.3423 51.7828 15.4332 52.6465C14.9332 52.8738 14.5241 53.2147 14.2059 53.6692C13.8877 54.1238 13.7287 54.6238 13.7287 55.1692V55.4419ZM27.365 41.8056C24.7287 41.8056 22.4787 40.8738 20.615 39.0101C18.7514 37.1465 17.8196 34.8965 17.8196 32.2601C17.8196 29.6238 18.7514 27.3738 20.615 25.5101C22.4787 23.6465 24.7287 22.7147 27.365 22.7147C30.0014 22.7147 32.2514 23.6465 34.115 25.5101C35.9787 27.3738 36.9105 29.6238 36.9105 32.2601C36.9105 34.8965 35.9787 37.1465 34.115 39.0101C32.2514 40.8738 30.0014 41.8056 27.365 41.8056ZM27.365 36.351C28.5014 36.351 29.4677 35.9529 30.2641 35.1565C31.0605 34.3601 31.4577 33.3947 31.4559 32.2601C31.4559 31.1238 31.0577 30.1574 30.2614 29.361C29.465 28.5647 28.4996 28.1674 27.365 28.1692C26.2287 28.1692 25.2623 28.5674 24.4659 29.3638C23.6696 30.1601 23.2723 31.1256 23.2741 32.2601C23.2741 33.3965 23.6723 34.3629 24.4687 35.1592C25.265 35.9556 26.2305 36.3529 27.365 36.351Z" fill="#FBDD3F"/>
</svg>
