<svg width="61" height="61" viewBox="0 0 61 61" fill="none" xmlns="http://www.w3.org/2000/svg">
<path d="M6.97624 60.5884C5.14291 60.5884 3.57291 59.935 2.26624 58.6284C0.959575 57.3217 0.307354 55.7528 0.309576 53.9217V7.25505C0.309576 5.42172 0.962909 3.85172 2.26958 2.54505C3.57624 1.23838 5.14513 0.586162 6.97624 0.588385H53.6429C55.4762 0.588385 57.0462 1.24172 58.3529 2.54838C59.6596 3.85505 60.3118 5.42394 60.3096 7.25505V53.9217C60.3096 55.755 59.6562 57.325 58.3496 58.6317C57.0429 59.9384 55.474 60.5906 53.6429 60.5884H6.97624ZM47.8929 53.9217H53.6429V48.1717L47.8929 53.9217ZM9.80957 53.9217H15.8929L25.8929 43.9217H32.9762L22.9762 53.9217H28.3096L38.3096 43.9217H45.3929L35.3929 53.9217H40.8096L50.8096 43.9217H53.6429V7.25505H6.97624V49.6717L12.7262 43.9217H19.8096L9.80957 53.9217ZM15.8096 37.255L11.1429 32.5884L25.8929 17.8384L32.5596 24.505L44.8096 12.255L49.4762 16.9217L32.5596 33.9217L25.8929 27.255L15.8096 37.255Z" fill="#75CF6D"/>
</svg>
