<svg width="44" height="52" viewBox="0 0 44 52" fill="none" xmlns="http://www.w3.org/2000/svg">
<path d="M6.25347 29.9109C6.25347 32.2427 6.7243 34.4515 7.66596 36.5375C8.60762 38.6235 9.95284 40.4503 11.7016 42.018C11.6568 41.7938 11.6344 41.592 11.6344 41.4126V40.8073C11.6344 39.3724 11.9034 38.0271 12.4415 36.7716C12.9796 35.516 13.7643 34.3726 14.7957 33.3413L22.3962 25.8752L29.9967 33.3413C31.0281 34.3726 31.8128 35.516 32.3509 36.7716C32.889 38.0271 33.158 39.3724 33.158 40.8073V41.4126C33.158 41.592 33.1356 41.7938 33.0908 42.018C34.8396 40.4485 36.1848 38.6208 37.1264 36.5348C38.0681 34.4488 38.5389 32.2409 38.5389 29.9109C38.5389 27.6689 38.1237 25.5497 37.2933 23.5534C36.4628 21.5571 35.2638 19.7751 33.6961 18.2074C32.7993 18.7904 31.8576 19.228 30.8711 19.5204C29.8846 19.8128 28.8757 19.958 27.8444 19.9562C25.0642 19.9562 22.6536 19.037 20.6124 17.1985C18.5713 15.36 17.3946 13.0956 17.0826 10.4051C15.3338 11.8849 13.7867 13.4211 12.4415 15.0139C11.0963 16.6066 9.96361 18.2209 9.04347 19.8567C8.12513 21.4925 7.43099 23.1624 6.96106 24.8663C6.49113 26.5703 6.25526 28.2518 6.25347 29.9109ZM22.3962 33.4085L18.5623 37.1752C18.0691 37.6684 17.6879 38.2289 17.4189 38.8567C17.1498 39.4845 17.0153 40.1347 17.0153 40.8073C17.0153 42.2422 17.5417 43.4753 18.5946 44.5066C19.6475 45.538 20.9147 46.0537 22.3962 46.0537C23.876 46.0537 25.1423 45.538 26.1951 44.5066C27.248 43.4753 27.7753 42.2422 27.7771 40.8073C27.7771 40.0898 27.6426 39.428 27.3735 38.8217C27.1045 38.2155 26.7234 37.6666 26.2301 37.1752L22.3962 33.4085ZM22.3962 0.315918V9.19442C22.3962 10.719 22.9235 11.997 23.9782 13.0283C25.0328 14.0597 26.3216 14.5753 27.8444 14.5753C28.6515 14.5753 29.403 14.4067 30.099 14.0695C30.7949 13.7323 31.411 13.2283 31.9473 12.5575L33.158 11.0777C36.4763 12.9611 39.0994 15.5843 41.0276 18.9473C42.9558 22.3104 43.9198 25.9649 43.9198 29.9109C43.9198 35.9196 41.8347 41.0091 37.6645 45.1793C33.4943 49.3495 28.4049 51.4346 22.3962 51.4346C16.3875 51.4346 11.2981 49.3495 7.12787 45.1793C2.95766 41.0091 0.872559 35.9196 0.872559 29.9109C0.872559 24.1264 2.81148 18.6334 6.68932 13.4319C10.5672 8.23034 15.8028 3.85835 22.3962 0.315918Z" fill="#43D4DD"/>
</svg>
