<svg width="43" height="58" viewBox="0 0 43 58" fill="none" xmlns="http://www.w3.org/2000/svg">
<path d="M37.4011 2.33545H5.50291C4.03483 2.33545 2.84473 3.52556 2.84473 4.99363V52.8408C2.84473 54.3089 4.03483 55.499 5.50291 55.499H37.4011C38.8691 55.499 40.0592 54.3089 40.0592 52.8408V4.99363C40.0592 3.52556 38.8691 2.33545 37.4011 2.33545Z" stroke="#EE467A" stroke-width="4"/>
<path d="M10.8188 39.55H21.4516M16.1352 44.8664V34.2337M10.8188 12.9683H32.0843V26.2592H10.8188V12.9683Z" stroke="#EE467A" stroke-width="4" stroke-linecap="round" stroke-linejoin="round"/>
<path d="M30.7558 43.5376C30.7558 42.0695 29.5657 40.8794 28.0976 40.8794C26.6296 40.8794 25.4395 42.0695 25.4395 43.5376C25.4395 45.0056 26.6296 46.1958 28.0976 46.1958C29.5657 46.1958 30.7558 45.0056 30.7558 43.5376Z" fill="#EE467A"/>
<path d="M34.7431 34.2334C34.7431 32.7653 33.553 31.5752 32.0849 31.5752C30.6169 31.5752 29.4268 32.7653 29.4268 34.2334C29.4268 35.7014 30.6169 36.8916 32.0849 36.8916C33.553 36.8916 34.7431 35.7014 34.7431 34.2334Z" fill="#EE467A"/>
</svg>
