<svg width="72" height="54" viewBox="0 0 72 54" fill="none" xmlns="http://www.w3.org/2000/svg">
<path d="M6.24781 15.3113C4.68207 15.3113 3.34122 15.7812 2.22528 16.7209C1.10933 17.6606 0.552306 18.7889 0.554204 20.1058L0.554204 48.873C0.554204 50.1914 1.11218 51.3206 2.22812 52.2603C3.34407 53.2 4.68397 53.6691 6.24781 53.6675L51.7967 53.6675C53.3624 53.6675 54.7033 53.1976 55.8192 52.2579C56.9351 51.3182 57.4922 50.1899 57.4903 48.873V34.4295H51.7967V48.873L6.24781 48.873L6.24781 20.1058L34.787 20.1058V15.3113L6.24781 15.3113Z" fill="#43D4DD"/>
<path d="M28.3108 33.401H32.6639C33.861 33.401 34.8405 32.4216 34.8405 31.2245V26.8714C34.8405 25.6743 33.861 24.6948 32.6639 24.6948H28.3108C27.1137 24.6948 26.1343 25.6743 26.1343 26.8714V31.2245C26.1343 32.4216 27.1137 33.401 28.3108 33.401ZM28.3108 44.2837H32.6639C33.861 44.2837 34.8405 43.3043 34.8405 42.1072V37.7541C34.8405 36.557 33.861 35.5776 32.6639 35.5776H28.3108C27.1137 35.5776 26.1343 36.557 26.1343 37.7541V42.1072C26.1343 43.3043 27.1137 44.2837 28.3108 44.2837ZM37.017 26.8714V31.2245C37.017 32.4216 37.9965 33.401 39.1936 33.401H43.5467C44.7438 33.401 45.7232 32.4216 45.7232 31.2245V26.8714C45.7232 25.6743 44.7438 24.6948 43.5467 24.6948H39.1936C37.9965 24.6948 37.017 25.6743 37.017 26.8714ZM39.1936 44.2837H43.5467C44.7438 44.2837 45.7232 43.3043 45.7232 42.1072V37.7541C45.7232 36.557 44.7438 35.5776 43.5467 35.5776H39.1936C37.9965 35.5776 37.017 36.557 37.017 37.7541V42.1072C37.017 43.3043 37.9965 44.2837 39.1936 44.2837Z" fill="#43D4DD"/>
<path d="M52.1095 14.0927C51.2535 13.93 50.5438 13.2334 50.5541 12.3621C50.5642 11.5051 51.2649 10.8043 52.1139 10.9214C53.0338 11.0483 53.9436 11.2894 54.8432 11.6449C56.2423 12.1976 57.5064 13.0381 58.6355 14.1662C59.7646 15.2953 60.6023 16.5625 61.1487 17.968C61.5022 18.8774 61.7387 19.7982 61.8581 20.7304C61.9665 21.576 61.262 22.2662 60.4095 22.2662C59.5517 22.2662 58.8716 21.565 58.7145 20.7218C58.6133 20.1791 58.4581 19.6445 58.2489 19.1182C57.8439 18.0996 57.2364 17.1853 56.4264 16.3753C55.6164 15.5653 54.7021 14.9578 53.6834 14.5528C53.1667 14.3473 52.6421 14.194 52.1095 14.0927ZM52.0873 7.76752C51.2334 7.67727 50.5355 6.99012 50.5355 6.13149C50.5355 5.27939 51.2226 4.57847 52.0722 4.64438C53.8181 4.77983 55.5272 5.18013 57.1996 5.84526C59.3596 6.70435 61.3109 8.00526 63.0537 9.74799C64.7964 11.4907 66.0973 13.4421 66.9564 15.6021C67.6215 17.2744 68.0218 18.9835 68.1573 20.7294C68.2232 21.579 67.5223 22.2662 66.6701 22.2662C65.8115 22.2662 65.1244 21.5682 65.0342 20.7143C64.892 19.3678 64.5632 18.05 64.0477 16.7611C63.3359 14.9811 62.2682 13.3797 60.8446 11.9571C59.4209 10.5334 57.8191 9.46572 56.039 8.7539C54.7504 8.23856 53.4331 7.90977 52.0873 7.76752ZM51.5597 19.8973C51.7717 20.4959 52.2399 20.9686 52.8364 21.1863L53.8751 21.5653C54.7836 21.8969 55.7255 21.204 55.3682 20.3052C55.1169 19.6729 54.7332 19.0993 54.2173 18.5844C53.7018 18.0689 53.128 17.6855 52.4957 17.4342C51.5936 17.0756 50.8941 18.0174 51.2181 18.9324L51.5597 19.8973Z" fill="#43D4DD"/>
</svg>
