<svg width="25" height="24" viewBox="0 0 25 24" fill="none" xmlns="http://www.w3.org/2000/svg">
<g id="Table/Invoice" filter="url(#filter0_dd_76363_1321)">
<g clip-path="url(#clip0_76363_1321)">
<rect x="-304.129" y="-355" width="1080" height="603" rx="16" fill="white"/>
<g id="Group 6840">
<g id="Table/Invoice/Row">
<mask id="path-2-inside-1_76363_1321" fill="white">
<path d="M-304.129 -10H775.871V34H-304.129V-10Z"/>
</mask>
<path d="M-304.129 -10H775.871V34H-304.129V-10Z" fill="white"/>
<g id="Table/Cell">
<g id="stack">
<g id="icon">
<g id="Group 6836">
<rect id="Rectangle 10882" x="0.871094" width="24" height="24" rx="12" fill="#EE467A" fill-opacity="0.2"/>
<g id="Group 6835">
<path id="Vector" d="M20.3636 12.8179C20.3575 11.8227 19.9585 10.8702 19.2534 10.1679L19.1436 10.0581C18.4324 9.35028 17.4699 8.95288 16.4667 8.95288C15.4633 8.95288 14.5009 9.35028 13.7897 10.0581L9.4607 14.3871H9.46081C8.91242 14.9367 8.11248 15.1521 7.36224 14.952C6.61211 14.7519 6.02557 14.1668 5.82372 13.4171C5.62186 12.6674 5.83538 11.8669 6.38365 11.3172C6.47984 11.2203 6.5853 11.1328 6.69848 11.0562V13.5842H7.18652V10.8097C7.74634 10.6104 8.36336 10.6483 8.89466 10.9146V13.5842H9.38269V11.2515C9.40742 11.2721 9.43106 11.2941 9.4535 11.3173L10.3588 12.2201L10.7028 11.8761L9.79993 10.9708C9.31114 10.4801 8.64989 10.1998 7.95726 10.1898C7.26464 10.1797 6.59566 10.4409 6.09281 10.9172C5.59008 11.3937 5.29332 12.0478 5.26608 12.74C5.2457 12.7738 5.23481 12.8126 5.23438 12.8522V17.9766H20.3636V12.8522C20.3649 12.8408 20.3649 12.8294 20.3636 12.818L20.3636 12.8179ZM17.4354 9.58704V17.4882H15.4833V9.67963C15.4827 9.65032 15.4769 9.62146 15.4661 9.59422C16.1066 9.39171 16.7936 9.38909 17.4354 9.58692L17.4354 9.58704ZM14.129 10.4118C14.3807 10.1558 14.6735 9.94381 14.9953 9.78465V17.4884H13.0431V11.488L14.129 10.4118ZM12.5551 17.4884H10.6029V13.9282L12.5551 11.976V17.4884ZM9.80005 14.7333L10.1149 14.4161V17.4882H8.16273V15.4995C8.78128 15.4433 9.3606 15.1722 9.80005 14.7332V14.7333ZM5.72256 14.3503C5.8157 14.4873 5.92104 14.6155 6.03739 14.7333C6.47684 15.1722 7.05616 15.4434 7.67471 15.4996V17.4884H5.72256V14.3503ZM17.9235 17.4883V9.78451C18.2453 9.94367 18.5382 10.1557 18.7898 10.4117L18.9069 10.5288C19.5264 11.1432 19.8751 11.9794 19.8757 12.8519C19.8745 12.8632 19.8745 12.8746 19.8757 12.8861V17.4881L17.9235 17.4883Z" fill="#EE467A" stroke="#EE467A" stroke-width="0.2"/>
<path id="Vector_2" d="M14.9899 8.21569H17.4301C17.6242 8.21569 17.8105 8.13857 17.9477 8.0013C18.085 7.86404 18.1621 7.67775 18.1621 7.48365C18.1621 7.03058 17.9822 6.59614 17.6618 6.27585C17.3415 5.95547 16.9071 5.77551 16.454 5.77551C16.3192 5.77551 16.21 5.88478 16.21 6.01953V6.75159H15.7219V6.50757C15.7219 6.24601 15.5824 6.00439 15.3559 5.87357C15.1294 5.74284 14.8503 5.74284 14.6238 5.87357C14.3974 6.0044 14.2578 6.24601 14.2578 6.50757V7.48365C14.2578 7.67777 14.3349 7.86407 14.4722 8.0013C14.6095 8.13854 14.7958 8.21569 14.9899 8.21569H14.9899Z" fill="#EE467A" stroke="#EE467A" stroke-width="0.2"/>
<path id="Vector_3" d="M15.486 8.58197C15.486 8.78416 15.3221 8.948 15.1199 8.948C14.9177 8.948 14.7539 8.78416 14.7539 8.58197C14.7539 8.37978 14.9177 8.21594 15.1199 8.21594C15.3221 8.21594 15.486 8.37978 15.486 8.58197Z" fill="#EE467A" stroke="#EE467A" stroke-width="0.2"/>
<path id="Vector_4" d="M17.6774 8.58197C17.6774 8.78416 17.5135 8.948 17.3113 8.948C17.1092 8.948 16.9453 8.78416 16.9453 8.58197C16.9453 8.37978 17.1092 8.21594 17.3113 8.21594C17.5135 8.21594 17.6774 8.37978 17.6774 8.58197Z" fill="#EE467A" stroke="#EE467A" stroke-width="0.2"/>
<path id="Vector_5" d="M10.7757 10.7802C10.9128 10.9175 11.0989 10.9948 11.293 10.995C11.487 10.9948 11.6732 10.9175 11.8104 10.7802L13.5356 9.05495L13.5355 9.05506C13.6727 8.91779 13.7497 8.73172 13.7497 8.53771C13.7497 8.34369 13.6727 8.15762 13.5355 8.02036C13.2152 7.69998 12.7807 7.52002 12.3276 7.52002C11.8747 7.52002 11.4401 7.69998 11.1197 8.02036C11.0252 8.11557 11.0252 8.26928 11.1197 8.36438L11.6371 8.88173L11.2931 9.22827L11.1199 9.05506H11.1197C10.9801 8.92248 10.795 8.84862 10.6025 8.84862C10.4099 8.84862 10.2248 8.92248 10.0852 9.05506C9.948 9.19232 9.87109 9.37839 9.87109 9.5723C9.87109 9.76631 9.948 9.95238 10.0852 10.0896L10.7757 10.7802Z" fill="#EE467A" stroke="#EE467A" stroke-width="0.2"/>
<path id="Vector_6" d="M11.8912 11.2121C11.96 11.2805 12.0529 11.3192 12.1498 11.3195C12.2722 11.3196 12.3864 11.2586 12.4544 11.157C12.5224 11.0553 12.5351 10.9265 12.4883 10.8134C12.4416 10.7004 12.3415 10.6183 12.2215 10.5944C12.1016 10.5706 11.9776 10.6083 11.8912 10.6948C11.7498 10.8382 11.7498 11.0686 11.8912 11.2121Z" fill="#EE467A" stroke="#EE467A" stroke-width="0.2"/>
<path id="Vector_7" d="M13.4479 9.65783C13.5158 9.72777 13.6092 9.76655 13.7066 9.76525C13.8038 9.76601 13.8972 9.72723 13.9652 9.65783C14.0997 9.51371 14.0956 9.28888 13.9563 9.14952C13.8169 9.01008 13.5921 9.00616 13.4479 9.14059C13.3788 9.20889 13.3398 9.30203 13.3398 9.3992C13.3398 9.49637 13.3788 9.58953 13.4479 9.65783Z" fill="#EE467A" stroke="#EE467A" stroke-width="0.2"/>
</g>
</g>
</g>
</g>
</g>
<path d="M-304.129 34.5H-302.629V33.5H-304.129V34.5ZM-299.629 34.5H-296.629V33.5H-299.629V34.5ZM-293.629 34.5H-290.629V33.5H-293.629V34.5ZM-287.629 34.5H-284.629V33.5H-287.629V34.5ZM-281.629 34.5H-278.629V33.5H-281.629V34.5ZM-275.629 34.5H-272.629V33.5H-275.629V34.5ZM-269.629 34.5H-266.629V33.5H-269.629V34.5ZM-263.629 34.5H-260.629V33.5H-263.629V34.5ZM-257.629 34.5H-254.629V33.5H-257.629V34.5ZM-251.629 34.5H-248.629V33.5H-251.629V34.5ZM-245.629 34.5H-242.629V33.5H-245.629V34.5ZM-239.629 34.5H-236.629V33.5H-239.629V34.5ZM-233.629 34.5H-230.629V33.5H-233.629V34.5ZM-227.629 34.5H-224.629V33.5H-227.629V34.5ZM-221.629 34.5H-218.629V33.5H-221.629V34.5ZM-215.629 34.5H-212.629V33.5H-215.629V34.5ZM-209.629 34.5H-206.629V33.5H-209.629V34.5ZM-203.629 34.5H-200.629V33.5H-203.629V34.5ZM-197.629 34.5H-194.629V33.5H-197.629V34.5ZM-191.629 34.5H-188.629V33.5H-191.629V34.5ZM-185.629 34.5H-182.629V33.5H-185.629V34.5ZM-179.629 34.5H-176.629V33.5H-179.629V34.5ZM-173.629 34.5H-170.629V33.5H-173.629V34.5ZM-167.629 34.5H-164.629V33.5H-167.629V34.5ZM-161.629 34.5H-158.629V33.5H-161.629V34.5ZM-155.629 34.5H-152.629V33.5H-155.629V34.5ZM-149.629 34.5H-146.629V33.5H-149.629V34.5ZM-143.629 34.5H-140.629V33.5H-143.629V34.5ZM-137.629 34.5H-134.629V33.5H-137.629V34.5ZM-131.629 34.5H-128.629V33.5H-131.629V34.5ZM-125.629 34.5H-122.629V33.5H-125.629V34.5ZM-119.629 34.5H-116.629V33.5H-119.629V34.5ZM-113.629 34.5H-110.629V33.5H-113.629V34.5ZM-107.629 34.5H-104.629V33.5H-107.629V34.5ZM-101.629 34.5H-98.6289V33.5H-101.629V34.5ZM-95.6289 34.5H-92.6289V33.5H-95.6289V34.5ZM-89.6289 34.5H-86.6289V33.5H-89.6289V34.5ZM-83.6289 34.5H-80.6289V33.5H-83.6289V34.5ZM-77.6289 34.5H-74.6289V33.5H-77.6289V34.5ZM-71.6289 34.5H-68.6289V33.5H-71.6289V34.5ZM-65.6289 34.5H-62.6289V33.5H-65.6289V34.5ZM-59.6289 34.5H-56.6289V33.5H-59.6289V34.5ZM-53.6289 34.5H-50.6289V33.5H-53.6289V34.5ZM-47.6289 34.5H-44.6289V33.5H-47.6289V34.5ZM-41.6289 34.5H-38.6289V33.5H-41.6289V34.5ZM-35.6289 34.5H-32.6289V33.5H-35.6289V34.5ZM-29.6289 34.5H-26.6289V33.5H-29.6289V34.5ZM-23.6289 34.5H-20.6289V33.5H-23.6289V34.5ZM-17.6289 34.5H-14.6289V33.5H-17.6289V34.5ZM-11.6289 34.5H-8.62892V33.5H-11.6289V34.5ZM-5.62891 34.5H-2.6289V33.5H-5.62891V34.5ZM0.371104 34.5H3.37108V33.5H0.371104V34.5ZM6.37109 34.5H9.3711V33.5H6.37109V34.5ZM12.3711 34.5H15.3711V33.5H12.3711V34.5ZM18.3711 34.5H21.3711V33.5H18.3711V34.5ZM24.3711 34.5H27.3711V33.5H24.3711V34.5ZM30.3711 34.5H33.3711V33.5H30.3711V34.5ZM36.3711 34.5H39.3711V33.5H36.3711V34.5ZM42.3711 34.5H45.3711V33.5H42.3711V34.5ZM48.3711 34.5H51.3711V33.5H48.3711V34.5ZM54.3711 34.5H57.3711V33.5H54.3711V34.5ZM60.3711 34.5H63.3711V33.5H60.3711V34.5ZM66.3711 34.5H69.3711V33.5H66.3711V34.5ZM72.3711 34.5H75.3711V33.5H72.3711V34.5ZM78.3711 34.5H81.3711V33.5H78.3711V34.5ZM84.3711 34.5H87.3711V33.5H84.3711V34.5ZM90.3711 34.5H93.3711V33.5H90.3711V34.5ZM96.3711 34.5H99.3711V33.5H96.3711V34.5ZM102.371 34.5H105.371V33.5H102.371V34.5ZM108.371 34.5H111.371V33.5H108.371V34.5ZM114.371 34.5H117.371V33.5H114.371V34.5ZM120.371 34.5H123.371V33.5H120.371V34.5ZM126.371 34.5H129.371V33.5H126.371V34.5ZM132.371 34.5H135.371V33.5H132.371V34.5ZM138.371 34.5H141.371V33.5H138.371V34.5ZM144.371 34.5H147.371V33.5H144.371V34.5ZM150.371 34.5H153.371V33.5H150.371V34.5ZM156.371 34.5H159.371V33.5H156.371V34.5ZM162.371 34.5H165.371V33.5H162.371V34.5ZM168.371 34.5H171.371V33.5H168.371V34.5ZM174.371 34.5H177.371V33.5H174.371V34.5ZM180.371 34.5H183.371V33.5H180.371V34.5ZM186.371 34.5H189.371V33.5H186.371V34.5ZM192.371 34.5H195.371V33.5H192.371V34.5ZM198.371 34.5H201.371V33.5H198.371V34.5ZM204.371 34.5H207.371V33.5H204.371V34.5ZM210.371 34.5H213.371V33.5H210.371V34.5ZM216.371 34.5H219.371V33.5H216.371V34.5ZM222.371 34.5H225.371V33.5H222.371V34.5ZM228.371 34.5H231.371V33.5H228.371V34.5ZM234.371 34.5H237.371V33.5H234.371V34.5ZM240.371 34.5H243.371V33.5H240.371V34.5ZM246.371 34.5H249.371V33.5H246.371V34.5ZM252.371 34.5H255.371V33.5H252.371V34.5ZM258.371 34.5H261.371V33.5H258.371V34.5ZM264.371 34.5H267.371V33.5H264.371V34.5ZM270.371 34.5H273.371V33.5H270.371V34.5ZM276.371 34.5H279.371V33.5H276.371V34.5ZM282.371 34.5H285.371V33.5H282.371V34.5ZM288.371 34.5H291.371V33.5H288.371V34.5ZM294.371 34.5H297.371V33.5H294.371V34.5ZM300.371 34.5H303.371V33.5H300.371V34.5ZM306.371 34.5H309.371V33.5H306.371V34.5ZM312.371 34.5H315.371V33.5H312.371V34.5ZM318.371 34.5H321.371V33.5H318.371V34.5ZM324.371 34.5H327.371V33.5H324.371V34.5ZM330.371 34.5H333.371V33.5H330.371V34.5ZM336.371 34.5H339.371V33.5H336.371V34.5ZM342.371 34.5H345.371V33.5H342.371V34.5ZM348.371 34.5H351.371V33.5H348.371V34.5ZM354.371 34.5H357.371V33.5H354.371V34.5ZM360.371 34.5H363.371V33.5H360.371V34.5ZM366.371 34.5H369.371V33.5H366.371V34.5ZM372.371 34.5H375.371V33.5H372.371V34.5ZM378.371 34.5H381.371V33.5H378.371V34.5ZM384.371 34.5H387.371V33.5H384.371V34.5ZM390.371 34.5H393.371V33.5H390.371V34.5ZM396.371 34.5H399.371V33.5H396.371V34.5ZM402.371 34.5H405.371V33.5H402.371V34.5ZM408.371 34.5H411.371V33.5H408.371V34.5ZM414.371 34.5H417.371V33.5H414.371V34.5ZM420.371 34.5H423.371V33.5H420.371V34.5ZM426.371 34.5H429.371V33.5H426.371V34.5ZM432.371 34.5H435.371V33.5H432.371V34.5ZM438.371 34.5H441.371V33.5H438.371V34.5ZM444.371 34.5H447.371V33.5H444.371V34.5ZM450.371 34.5H453.371V33.5H450.371V34.5ZM456.371 34.5H459.371V33.5H456.371V34.5ZM462.371 34.5H465.371V33.5H462.371V34.5ZM468.371 34.5H471.371V33.5H468.371V34.5ZM474.371 34.5H477.371V33.5H474.371V34.5ZM480.371 34.5H483.371V33.5H480.371V34.5ZM486.371 34.5H489.371V33.5H486.371V34.5ZM492.371 34.5H495.371V33.5H492.371V34.5ZM498.371 34.5H501.371V33.5H498.371V34.5ZM504.371 34.5H507.371V33.5H504.371V34.5ZM510.371 34.5H513.371V33.5H510.371V34.5ZM516.371 34.5H519.371V33.5H516.371V34.5ZM522.371 34.5H525.371V33.5H522.371V34.5ZM528.371 34.5H531.371V33.5H528.371V34.5ZM534.371 34.5H537.371V33.5H534.371V34.5ZM540.371 34.5H543.371V33.5H540.371V34.5ZM546.371 34.5H549.371V33.5H546.371V34.5ZM552.371 34.5H555.371V33.5H552.371V34.5ZM558.371 34.5H561.371V33.5H558.371V34.5ZM564.371 34.5H567.371V33.5H564.371V34.5ZM570.371 34.5H573.371V33.5H570.371V34.5ZM576.371 34.5H579.371V33.5H576.371V34.5ZM582.371 34.5H585.371V33.5H582.371V34.5ZM588.371 34.5H591.371V33.5H588.371V34.5ZM594.371 34.5H597.371V33.5H594.371V34.5ZM600.371 34.5H603.371V33.5H600.371V34.5ZM606.371 34.5H609.371V33.5H606.371V34.5ZM612.371 34.5H615.371V33.5H612.371V34.5ZM618.371 34.5H621.371V33.5H618.371V34.5ZM624.371 34.5H627.371V33.5H624.371V34.5ZM630.371 34.5H633.371V33.5H630.371V34.5ZM636.371 34.5H639.371V33.5H636.371V34.5ZM642.371 34.5H645.371V33.5H642.371V34.5ZM648.371 34.5H651.371V33.5H648.371V34.5ZM654.371 34.5H657.371V33.5H654.371V34.5ZM660.371 34.5H663.371V33.5H660.371V34.5ZM666.371 34.5H669.371V33.5H666.371V34.5ZM672.371 34.5H675.371V33.5H672.371V34.5ZM678.371 34.5H681.371V33.5H678.371V34.5ZM684.371 34.5H687.371V33.5H684.371V34.5ZM690.371 34.5H693.371V33.5H690.371V34.5ZM696.371 34.5H699.371V33.5H696.371V34.5ZM702.371 34.5H705.371V33.5H702.371V34.5ZM708.371 34.5H711.371V33.5H708.371V34.5ZM714.371 34.5H717.371V33.5H714.371V34.5ZM720.371 34.5H723.371V33.5H720.371V34.5ZM726.371 34.5H729.371V33.5H726.371V34.5ZM732.371 34.5H735.371V33.5H732.371V34.5ZM738.371 34.5H741.371V33.5H738.371V34.5ZM744.371 34.5H747.371V33.5H744.371V34.5ZM750.371 34.5H753.371V33.5H750.371V34.5ZM756.371 34.5H759.371V33.5H756.371V34.5ZM762.371 34.5H765.371V33.5H762.371V34.5ZM768.371 34.5H771.371V33.5H768.371V34.5ZM774.371 34.5H775.871V33.5H774.371V34.5ZM-304.129 35H-302.629V33H-304.129V35ZM-299.629 35H-296.629V33H-299.629V35ZM-293.629 35H-290.629V33H-293.629V35ZM-287.629 35H-284.629V33H-287.629V35ZM-281.629 35H-278.629V33H-281.629V35ZM-275.629 35H-272.629V33H-275.629V35ZM-269.629 35H-266.629V33H-269.629V35ZM-263.629 35H-260.629V33H-263.629V35ZM-257.629 35H-254.629V33H-257.629V35ZM-251.629 35H-248.629V33H-251.629V35ZM-245.629 35H-242.629V33H-245.629V35ZM-239.629 35H-236.629V33H-239.629V35ZM-233.629 35H-230.629V33H-233.629V35ZM-227.629 35H-224.629V33H-227.629V35ZM-221.629 35H-218.629V33H-221.629V35ZM-215.629 35H-212.629V33H-215.629V35ZM-209.629 35H-206.629V33H-209.629V35ZM-203.629 35H-200.629V33H-203.629V35ZM-197.629 35H-194.629V33H-197.629V35ZM-191.629 35H-188.629V33H-191.629V35ZM-185.629 35H-182.629V33H-185.629V35ZM-179.629 35H-176.629V33H-179.629V35ZM-173.629 35H-170.629V33H-173.629V35ZM-167.629 35H-164.629V33H-167.629V35ZM-161.629 35H-158.629V33H-161.629V35ZM-155.629 35H-152.629V33H-155.629V35ZM-149.629 35H-146.629V33H-149.629V35ZM-143.629 35H-140.629V33H-143.629V35ZM-137.629 35H-134.629V33H-137.629V35ZM-131.629 35H-128.629V33H-131.629V35ZM-125.629 35H-122.629V33H-125.629V35ZM-119.629 35H-116.629V33H-119.629V35ZM-113.629 35H-110.629V33H-113.629V35ZM-107.629 35H-104.629V33H-107.629V35ZM-101.629 35H-98.6289V33H-101.629V35ZM-95.6289 35H-92.6289V33H-95.6289V35ZM-89.6289 35H-86.6289V33H-89.6289V35ZM-83.6289 35H-80.6289V33H-83.6289V35ZM-77.6289 35H-74.6289V33H-77.6289V35ZM-71.6289 35H-68.6289V33H-71.6289V35ZM-65.6289 35H-62.6289V33H-65.6289V35ZM-59.6289 35H-56.6289V33H-59.6289V35ZM-53.6289 35H-50.6289V33H-53.6289V35ZM-47.6289 35H-44.6289V33H-47.6289V35ZM-41.6289 35H-38.6289V33H-41.6289V35ZM-35.6289 35H-32.6289V33H-35.6289V35ZM-29.6289 35H-26.6289V33H-29.6289V35ZM-23.6289 35H-20.6289V33H-23.6289V35ZM-17.6289 35H-14.6289V33H-17.6289V35ZM-11.6289 35H-8.62892V33H-11.6289V35ZM-5.62891 35H-2.6289V33H-5.62891V35ZM0.371104 35H3.37108V33H0.371104V35ZM6.37109 35H9.3711V33H6.37109V35ZM12.3711 35H15.3711V33H12.3711V35ZM18.3711 35H21.3711V33H18.3711V35ZM24.3711 35H27.3711V33H24.3711V35ZM30.3711 35H33.3711V33H30.3711V35ZM36.3711 35H39.3711V33H36.3711V35ZM42.3711 35H45.3711V33H42.3711V35ZM48.3711 35H51.3711V33H48.3711V35ZM54.3711 35H57.3711V33H54.3711V35ZM60.3711 35H63.3711V33H60.3711V35ZM66.3711 35H69.3711V33H66.3711V35ZM72.3711 35H75.3711V33H72.3711V35ZM78.3711 35H81.3711V33H78.3711V35ZM84.3711 35H87.3711V33H84.3711V35ZM90.3711 35H93.3711V33H90.3711V35ZM96.3711 35H99.3711V33H96.3711V35ZM102.371 35H105.371V33H102.371V35ZM108.371 35H111.371V33H108.371V35ZM114.371 35H117.371V33H114.371V35ZM120.371 35H123.371V33H120.371V35ZM126.371 35H129.371V33H126.371V35ZM132.371 35H135.371V33H132.371V35ZM138.371 35H141.371V33H138.371V35ZM144.371 35H147.371V33H144.371V35ZM150.371 35H153.371V33H150.371V35ZM156.371 35H159.371V33H156.371V35ZM162.371 35H165.371V33H162.371V35ZM168.371 35H171.371V33H168.371V35ZM174.371 35H177.371V33H174.371V35ZM180.371 35H183.371V33H180.371V35ZM186.371 35H189.371V33H186.371V35ZM192.371 35H195.371V33H192.371V35ZM198.371 35H201.371V33H198.371V35ZM204.371 35H207.371V33H204.371V35ZM210.371 35H213.371V33H210.371V35ZM216.371 35H219.371V33H216.371V35ZM222.371 35H225.371V33H222.371V35ZM228.371 35H231.371V33H228.371V35ZM234.371 35H237.371V33H234.371V35ZM240.371 35H243.371V33H240.371V35ZM246.371 35H249.371V33H246.371V35ZM252.371 35H255.371V33H252.371V35ZM258.371 35H261.371V33H258.371V35ZM264.371 35H267.371V33H264.371V35ZM270.371 35H273.371V33H270.371V35ZM276.371 35H279.371V33H276.371V35ZM282.371 35H285.371V33H282.371V35ZM288.371 35H291.371V33H288.371V35ZM294.371 35H297.371V33H294.371V35ZM300.371 35H303.371V33H300.371V35ZM306.371 35H309.371V33H306.371V35ZM312.371 35H315.371V33H312.371V35ZM318.371 35H321.371V33H318.371V35ZM324.371 35H327.371V33H324.371V35ZM330.371 35H333.371V33H330.371V35ZM336.371 35H339.371V33H336.371V35ZM342.371 35H345.371V33H342.371V35ZM348.371 35H351.371V33H348.371V35ZM354.371 35H357.371V33H354.371V35ZM360.371 35H363.371V33H360.371V35ZM366.371 35H369.371V33H366.371V35ZM372.371 35H375.371V33H372.371V35ZM378.371 35H381.371V33H378.371V35ZM384.371 35H387.371V33H384.371V35ZM390.371 35H393.371V33H390.371V35ZM396.371 35H399.371V33H396.371V35ZM402.371 35H405.371V33H402.371V35ZM408.371 35H411.371V33H408.371V35ZM414.371 35H417.371V33H414.371V35ZM420.371 35H423.371V33H420.371V35ZM426.371 35H429.371V33H426.371V35ZM432.371 35H435.371V33H432.371V35ZM438.371 35H441.371V33H438.371V35ZM444.371 35H447.371V33H444.371V35ZM450.371 35H453.371V33H450.371V35ZM456.371 35H459.371V33H456.371V35ZM462.371 35H465.371V33H462.371V35ZM468.371 35H471.371V33H468.371V35ZM474.371 35H477.371V33H474.371V35ZM480.371 35H483.371V33H480.371V35ZM486.371 35H489.371V33H486.371V35ZM492.371 35H495.371V33H492.371V35ZM498.371 35H501.371V33H498.371V35ZM504.371 35H507.371V33H504.371V35ZM510.371 35H513.371V33H510.371V35ZM516.371 35H519.371V33H516.371V35ZM522.371 35H525.371V33H522.371V35ZM528.371 35H531.371V33H528.371V35ZM534.371 35H537.371V33H534.371V35ZM540.371 35H543.371V33H540.371V35ZM546.371 35H549.371V33H546.371V35ZM552.371 35H555.371V33H552.371V35ZM558.371 35H561.371V33H558.371V35ZM564.371 35H567.371V33H564.371V35ZM570.371 35H573.371V33H570.371V35ZM576.371 35H579.371V33H576.371V35ZM582.371 35H585.371V33H582.371V35ZM588.371 35H591.371V33H588.371V35ZM594.371 35H597.371V33H594.371V35ZM600.371 35H603.371V33H600.371V35ZM606.371 35H609.371V33H606.371V35ZM612.371 35H615.371V33H612.371V35ZM618.371 35H621.371V33H618.371V35ZM624.371 35H627.371V33H624.371V35ZM630.371 35H633.371V33H630.371V35ZM636.371 35H639.371V33H636.371V35ZM642.371 35H645.371V33H642.371V35ZM648.371 35H651.371V33H648.371V35ZM654.371 35H657.371V33H654.371V35ZM660.371 35H663.371V33H660.371V35ZM666.371 35H669.371V33H666.371V35ZM672.371 35H675.371V33H672.371V35ZM678.371 35H681.371V33H678.371V35ZM684.371 35H687.371V33H684.371V35ZM690.371 35H693.371V33H690.371V35ZM696.371 35H699.371V33H696.371V35ZM702.371 35H705.371V33H702.371V35ZM708.371 35H711.371V33H708.371V35ZM714.371 35H717.371V33H714.371V35ZM720.371 35H723.371V33H720.371V35ZM726.371 35H729.371V33H726.371V35ZM732.371 35H735.371V33H732.371V35ZM738.371 35H741.371V33H738.371V35ZM744.371 35H747.371V33H744.371V35ZM750.371 35H753.371V33H750.371V35ZM756.371 35H759.371V33H756.371V35ZM762.371 35H765.371V33H762.371V35ZM768.371 35H771.371V33H768.371V35ZM774.371 35H775.871V33H774.371V35Z" fill="#919EAB" fill-opacity="0.2" mask="url(#path-2-inside-1_76363_1321)"/>
</g>
</g>
</g>
</g>
<defs>
<filter id="filter0_dd_76363_1321" x="-324.129" y="-363" width="1120" height="643" filterUnits="userSpaceOnUse" color-interpolation-filters="sRGB">
<feFlood flood-opacity="0" result="BackgroundImageFix"/>
<feColorMatrix in="SourceAlpha" type="matrix" values="0 0 0 0 0 0 0 0 0 0 0 0 0 0 0 0 0 0 127 0" result="hardAlpha"/>
<feMorphology radius="4" operator="erode" in="SourceAlpha" result="effect1_dropShadow_76363_1321"/>
<feOffset dy="12"/>
<feGaussianBlur stdDeviation="12"/>
<feComposite in2="hardAlpha" operator="out"/>
<feColorMatrix type="matrix" values="0 0 0 0 0.568627 0 0 0 0 0.619608 0 0 0 0 0.670588 0 0 0 0.12 0"/>
<feBlend mode="normal" in2="BackgroundImageFix" result="effect1_dropShadow_76363_1321"/>
<feColorMatrix in="SourceAlpha" type="matrix" values="0 0 0 0 0 0 0 0 0 0 0 0 0 0 0 0 0 0 127 0" result="hardAlpha"/>
<feOffset/>
<feGaussianBlur stdDeviation="1"/>
<feComposite in2="hardAlpha" operator="out"/>
<feColorMatrix type="matrix" values="0 0 0 0 0.568627 0 0 0 0 0.619608 0 0 0 0 0.670588 0 0 0 0.2 0"/>
<feBlend mode="normal" in2="effect1_dropShadow_76363_1321" result="effect2_dropShadow_76363_1321"/>
<feBlend mode="normal" in="SourceGraphic" in2="effect2_dropShadow_76363_1321" result="shape"/>
</filter>
<clipPath id="clip0_76363_1321">
<rect x="-304.129" y="-355" width="1080" height="603" rx="16" fill="white"/>
</clipPath>
</defs>
</svg>
