<svg width="248" height="150" viewBox="0 0 248 150" fill="none" xmlns="http://www.w3.org/2000/svg">
<path fill-rule="evenodd" clip-rule="evenodd" d="M239.361 34.8668C256.044 85.831 188.309 118.905 139.183 140.405C110.513 152.953 82.8758 133.615 58.4569 114.041C30.6861 91.7797 -8.55809 65.9505 5.52059 33.2616C19.367 1.11189 64.4156 18.6908 99.4194 18.9311C151.324 19.2874 223.214 -14.4629 239.361 34.8668Z" fill="black" fill-opacity="0.7"/>
<g filter="url(#filter0_d_76363_1321)">
<path fill-rule="evenodd" clip-rule="evenodd" d="M239.361 34.8668C256.044 85.831 188.309 118.905 139.183 140.405C110.513 152.953 82.8758 133.615 58.4569 114.041C30.6861 91.7797 -8.55808 65.9505 5.52059 33.2616C19.367 1.11189 64.4156 18.6908 99.4194 18.9311C151.324 19.2874 223.214 -14.4629 239.361 34.8668Z" fill="url(#paint0_linear_76363_1321)" shape-rendering="crispEdges"/>
</g>
<defs>
<filter id="filter0_d_76363_1321" x="-1.4375" y="7.99414" width="247.381" height="144.4" filterUnits="userSpaceOnUse" color-interpolation-filters="sRGB">
<feFlood flood-opacity="0" result="BackgroundImageFix"/>
<feColorMatrix in="SourceAlpha" type="matrix" values="0 0 0 0 0 0 0 0 0 0 0 0 0 0 0 0 0 0 127 0" result="hardAlpha"/>
<feOffset dy="4"/>
<feGaussianBlur stdDeviation="2"/>
<feComposite in2="hardAlpha" operator="out"/>
<feColorMatrix type="matrix" values="0 0 0 0 0 0 0 0 0 0 0 0 0 0 0 0 0 0 0.25 0"/>
<feBlend mode="normal" in2="BackgroundImageFix" result="effect1_dropShadow_76363_1321"/>
<feBlend mode="normal" in="SourceGraphic" in2="effect1_dropShadow_76363_1321" result="shape"/>
</filter>
<linearGradient id="paint0_linear_76363_1321" x1="240.71" y1="39.6905" x2="13.4348" y2="95.3911" gradientUnits="userSpaceOnUse">
<stop stop-color="#E0E199"/>
<stop offset="1" stop-color="#00F0FF" stop-opacity="0.65"/>
</linearGradient>
</defs>
</svg>
