<svg width="44" height="45" viewBox="0 0 44 45" fill="none" xmlns="http://www.w3.org/2000/svg">
<g id="icon/color/ic_doc">
<g id="google-docs">
<path id="Path" d="M5.51562 2.78363V41.2836C5.51562 42.7959 6.75289 44.0332 8.26519 44.0332H35.0025C36.5153 44.0332 37.753 42.7955 37.753 41.2828V10.1614C37.753 9.31703 37.4175 8.50726 36.8205 7.91015L29.876 0.965658C29.2789 0.368638 28.4691 0.0332031 27.6248 0.0332031H8.26606C6.75332 0.0332031 5.51563 1.2709 5.51562 2.78363Z" fill="#00AB55"/>
<path id="Path_2" d="M12.8442 21.2602H30.425C30.8632 21.2602 31.2184 20.905 31.2184 20.4669V18.5321C31.2184 18.094 30.8632 17.7388 30.425 17.7388H12.8442C12.406 17.7388 12.0508 18.094 12.0508 18.5321V20.4669C12.0508 20.905 12.406 21.2602 12.8442 21.2602Z" fill="#C8FACD"/>
<path id="Path_3" d="M12.8442 26.7573H30.425C30.8632 26.7573 31.2184 26.4021 31.2184 25.9639V24.0292C31.2184 23.591 30.8632 23.2358 30.425 23.2358H12.8442C12.406 23.2358 12.0508 23.591 12.0508 24.0292V25.9639C12.0508 26.4021 12.406 26.7573 12.8442 26.7573Z" fill="#C8FACD"/>
<path id="Path_4" d="M12.8442 32.2543H30.425C30.8632 32.2543 31.2184 31.8991 31.2184 31.4609V29.5263C31.2184 29.0881 30.8632 28.7329 30.425 28.7329H12.8442C12.406 28.7329 12.0508 29.0881 12.0508 29.5263V31.461C12.0508 31.8991 12.406 32.2543 12.8442 32.2543Z" fill="#C8FACD"/>
<path id="Path_5" d="M12.6252 37.7514H21.5248C21.8421 37.7514 22.0993 37.4942 22.0993 37.1769V34.8044C22.0993 34.4872 21.8421 34.23 21.5248 34.23H12.6252C12.308 34.23 12.0508 34.4872 12.0508 34.8044V37.1769C12.0508 37.4942 12.308 37.7514 12.6252 37.7514Z" fill="#C8FACD"/>
<path id="Path_6" d="M29.8753 0.965652C29.4664 0.55671 28.9575 0.270624 28.4062 0.130859V9.09668L37.7524 18.4428V10.1613C37.7524 9.31694 37.4169 8.50716 36.8199 7.91006L29.8753 0.965652Z" fill="url(#paint0_linear_76363_16041)"/>
<path id="Path_7" fill-rule="evenodd" clip-rule="evenodd" d="M37.6563 9.38924C37.6664 9.43341 37.6758 9.47646 37.6844 9.51796H29.2598C28.6633 9.51796 28.1797 9.03439 28.1797 8.4378V0.0834961C28.2455 0.0952294 28.3147 0.108947 28.3861 0.124735C29.014 0.263637 29.5867 0.586563 30.0415 1.04132L36.7411 7.74096C37.1942 8.19399 37.5123 8.76504 37.6563 9.38924Z" fill="url(#paint1_linear_76363_16041)"/>
<path id="Path_8" d="M37.7373 36.6997V40.3103C37.7373 42.3578 36.4996 44.033 34.9869 44.033H8.24957C6.73726 44.033 5.5 42.3583 5.5 40.3114V36.6997H37.7373Z" fill="url(#paint2_linear_76363_16041)"/>
</g>
</g>
<defs>
<linearGradient id="paint0_linear_76363_16041" x1="37.4923" y1="11.7675" x2="30.7115" y2="6.60615" gradientUnits="userSpaceOnUse">
<stop stop-color="#00AB55" stop-opacity="0.01"/>
<stop offset="1" stop-color="#005249"/>
</linearGradient>
<linearGradient id="paint1_linear_76363_16041" x1="23.4273" y1="4.80073" x2="32.8615" y2="14.3052" gradientUnits="userSpaceOnUse">
<stop stop-color="#5BE584"/>
<stop offset="1" stop-color="#00AB55"/>
</linearGradient>
<linearGradient id="paint2_linear_76363_16041" x1="8.89088" y1="38.6264" x2="8.89088" y2="44.417" gradientUnits="userSpaceOnUse">
<stop stop-color="#00AB55" stop-opacity="0.01"/>
<stop offset="1" stop-color="#005249"/>
</linearGradient>
</defs>
</svg>
